<?xml version="1.0" encoding="UTF-8"?>
<svg xmlns="http://www.w3.org/2000/svg" xmlns:xlink="http://www.w3.org/1999/xlink" viewBox="0 0 3710 3710">
  <defs>
    <style>
      .cls-1 {
        fill: #91b3fa;
      }

      .cls-2 {
        fill: #243242;
      }

      .cls-3 {
        fill: #e25656;
      }

      .cls-4 {
        fill: url(#linear-gradient-7);
      }

      .cls-5 {
        fill: url(#linear-gradient-5);
      }

      .cls-6 {
        fill: url(#linear-gradient-6);
      }

      .cls-7 {
        fill: url(#linear-gradient-4);
      }

      .cls-8 {
        fill: url(#linear-gradient-3);
      }

      .cls-9 {
        fill: url(#linear-gradient-2);
      }

      .cls-10 {
        fill: url(#linear-gradient);
      }

      .cls-11 {
        opacity: .53;
      }

      .cls-11, .cls-12 {
        fill: #fff;
      }

      .cls-13 {
        fill: #d32f2f;
      }

      .cls-14 {
        fill: #1f2937;
      }

      .cls-15 {
        fill: #f8f7f4;
      }

      .cls-16 {
        fill: #d86c6c;
      }

      .cls-17 {
        fill: #f1b8b8;
      }
    </style>
    <linearGradient id="linear-gradient" x1="2880.94" y1="2401.88" x2="2874.14" y2="2126.46" gradientUnits="userSpaceOnUse">
      <stop offset="0" stop-color="#febbba"/>
      <stop offset="1" stop-color="#ff928e"/>
    </linearGradient>
    <linearGradient id="linear-gradient-2" x1="2902.25" y1="3027.43" x2="3084.77" y2="3027.43" xlink:href="#linear-gradient"/>
    <linearGradient id="linear-gradient-3" x1="2791.5" y1="3041" x2="2897.19" y2="3041" xlink:href="#linear-gradient"/>
    <linearGradient id="linear-gradient-4" x1="2563.82" y1="2248.03" x2="2770.73" y2="2248.03" xlink:href="#linear-gradient"/>
    <linearGradient id="linear-gradient-5" x1="3330.14" y1="1680.4" x2="2888.12" y2="2380.83" gradientUnits="userSpaceOnUse">
      <stop offset="0" stop-color="#ff928e"/>
      <stop offset="1" stop-color="#fe7062"/>
    </linearGradient>
    <linearGradient id="linear-gradient-6" x1="2823.54" y1="2349.61" x2="2888.22" y2="2349.61" xlink:href="#linear-gradient"/>
    <linearGradient id="linear-gradient-7" x1="2835.21" y1="2285.15" x2="3141.22" y2="2121.94" xlink:href="#linear-gradient"/>
  </defs>
  <g id="Background">
    <rect class="cls-12" width="3710" height="3710"/>
  </g>
  <g id="Illustration">
    <g>
      <g>
        <polygon class="cls-14" points="1640.55 2495.44 1581.62 3023.93 2265.3 3023.93 2176.25 2495.44 1640.55 2495.44"/>
        <path class="cls-2" d="M450.91,1155.56v1245.51c0,102.46,81.65,186.25,184.07,188.89,454.92,11.73,2046.01,40.17,2479.06,33.79,74.43-1.1,134.73-60.66,136.87-135.07,8.35-289.35,21.91-985.13-28.28-1308.16-10.57-68.03-67.99-118.89-136.8-121.09-381.17-12.19-2067.82-50.91-2500.68-41.19-74.65,1.68-134.26,62.66-134.26,137.33Z"/>
        <path class="cls-15" d="M529.06,1149.5v1183.32c0,59.82,48.02,108.57,107.84,109.46l2414.85,29.83c59.3.89,107.91-46.82,108.13-106.13l4.04-1172.74c.16-42.41-33.63-77.15-76.02-78.19l-2472.36-49.95c-47.42-1.15-86.48,36.97-86.48,84.4Z"/>
        <path class="cls-1" d="M3178.05,2521.14h-.07l-2648.99-45.13c-2.14-.04-3.85-1.81-3.81-3.95.03-2.14,1.78-3.83,3.95-3.82l2648.99,45.13c2.14.04,3.85,1.81,3.81,3.95-.03,2.12-1.77,3.82-3.88,3.82Z"/>
        <path class="cls-2" d="M2412.56,3132.06h-1000.6c-27.18,0-47.6-19.35-42.34-40.14l12.84-50.78c3.86-15.27,20.66-26.48,40.61-27.1l964.61-30.1c20.85-.65,39.3,10.42,43.85,26.29l23.15,80.88c6.01,21.01-14.5,40.96-42.12,40.96Z"/>
      </g>
      <rect class="cls-17" x="619.31" y="1357.62" width="413.29" height="289.64" rx="12.64" ry="12.64"/>
      <rect class="cls-17" x="682.78" y="1813.24" width="413.29" height="289.64" rx="12.64" ry="12.64"/>
      <rect class="cls-17" x="2563.41" y="1815.76" width="413.29" height="289.64" rx="12.64" ry="12.64"/>
      <rect class="cls-17" x="1889.87" y="1814.38" width="413.29" height="289.64" rx="12.64" ry="12.64"/>
      <rect class="cls-17" x="1885.27" y="2260.16" width="413.29" height="289.64" rx="12.64" ry="12.64"/>
      <rect class="cls-17" x="682.78" y="2262.06" width="413.29" height="289.64" rx="12.64" ry="12.64"/>
      <rect class="cls-17" x="1277.75" y="1360.91" width="413.29" height="289.64" rx="12.64" ry="12.64"/>
      <rect class="cls-17" x="1963.8" y="1359.53" width="413.29" height="289.64" rx="12.64" ry="12.64"/>
      <rect class="cls-17" x="2632.45" y="1362.81" width="413.29" height="289.64" rx="12.64" ry="12.64"/>
      <g>
        <rect class="cls-13" x="1558.03" y="538" width="734.94" height="606.1" rx="18.64" ry="18.64"/>
        <g>
          <path class="cls-15" d="M1732.09,831.69h398.59c4.27,0,6.51-5.07,3.64-8.23l-199.54-219.11c-1.95-2.14-5.32-2.14-7.27,0l-199.06,219.11c-2.87,3.16-.63,8.22,3.64,8.22Z"/>
          <path class="cls-15" d="M1752.44,831.69v224.78c0,5.23,4.24,9.47,9.47,9.47h90.73c2.02,0,3.66-1.64,3.66-3.66v-137.35c0-1.46,1.19-2.65,2.65-2.65h69.94c1.37,0,2.49,1.11,2.49,2.49v138.08c0,1.71,1.38,3.09,3.09,3.09h165c5.73,0,10.37-4.64,10.37-10.37v-223.89h-357.41Z"/>
        </g>
      </g>
      <g>
        <path class="cls-14" d="M2858.64,1345.15c-1.88,0-3.4-1.52-3.4-3.4v-62.08c0-11.71-9.53-21.25-21.23-21.28l-2007.78-4.97h-.06c-6.56,0-12.74,2.55-17.39,7.19-4.66,4.65-7.23,10.84-7.23,17.42v63.72c0,1.88-1.52,3.4-3.4,3.4s-3.4-1.52-3.4-3.4v-63.72c0-8.4,3.28-16.3,9.23-22.24,5.93-5.92,13.81-9.17,22.18-9.17h.08l2007.78,4.97c15.45.04,28.01,12.64,28.01,28.08v62.08c0,1.88-1.52,3.4-3.4,3.4Z"/>
        <path class="cls-14" d="M1471.38,1348.55c-1.88,0-3.4-1.52-3.4-3.4v-91.8c0-1.88,1.52-3.4,3.4-3.4s3.4,1.52,3.4,3.4v91.8c0,1.88-1.52,3.4-3.4,3.4Z"/>
        <path class="cls-14" d="M2171.81,1351.95c-1.88,0-3.4-1.52-3.4-3.4v-91.8c0-1.88,1.52-3.4,3.4-3.4s3.4,1.52,3.4,3.4v91.8c0,1.88-1.52,3.4-3.4,3.4Z"/>
        <path class="cls-14" d="M1903.2,1253.35c-1.88,0-3.4-1.52-3.4-3.4v-105.4c0-1.88,1.52-3.4,3.4-3.4s3.4,1.52,3.4,3.4v105.4c0,1.88-1.52,3.4-3.4,3.4Z"/>
      </g>
      <g>
        <path class="cls-14" d="M2312.35,2428.66c-1.88,0-3.4-1.52-3.4-3.4s1.52-3.4,3.4-3.4h41.06c4.16,0,8.08-1.63,11.02-4.58,2.94-2.95,4.55-6.86,4.54-11.03l-1.71-647.2c-.05-6.99-5.8-12.69-12.8-12.69h-156.48c-15.47,0-28.05-12.58-28.05-28.05v-63.75c0-1.88,1.52-3.4,3.4-3.4s3.4,1.52,3.4,3.4v63.75c0,11.72,9.53,21.25,21.25,21.25h156.48c10.73,0,19.52,8.73,19.6,19.45l1.71,647.22c.02,5.98-2.3,11.61-6.52,15.85-4.23,4.24-9.85,6.57-15.83,6.57h-41.06Z"/>
        <path class="cls-14" d="M2365.62,1957.18h-64.6c-1.88,0-3.4-1.52-3.4-3.4s1.52-3.4,3.4-3.4h64.6c1.88,0,3.4,1.52,3.4,3.4s-1.52,3.4-3.4,3.4Z"/>
      </g>
      <g>
        <path class="cls-14" d="M671.37,2428.66h-32.7c-8.25,0-16.01-3.22-21.84-9.07-5.83-5.85-9.02-13.61-9-21.87l1.83-638.69c.08-10.74,8.88-19.47,19.6-19.47h156.48c11.72,0,21.25-9.53,21.25-21.25v-63.75c0-1.88,1.52-3.4,3.4-3.4s3.4,1.52,3.4,3.4v63.75c0,15.47-12.58,28.05-28.05,28.05h-156.48c-7.01,0-12.75,5.7-12.8,12.7l-1.83,638.67c-.02,6.44,2.47,12.49,7.02,17.05,4.54,4.56,10.59,7.07,17.02,7.07h32.7c1.88,0,3.4,1.53,3.4,3.41s-1.52,3.4-3.4,3.4Z"/>
        <path class="cls-14" d="M682.55,1957.18h-64.6c-1.88,0-3.4-1.52-3.4-3.4s1.52-3.4,3.4-3.4h64.6c1.88,0,3.4,1.52,3.4,3.4s-1.52,3.4-3.4,3.4Z"/>
      </g>
      <g>
        <path class="cls-14" d="M3048.25,1892.89h0l-68.9-.03c-1.88,0-3.4-1.17-3.4-2.61s1.52-2.61,3.4-2.61h0l68.91.03h0c1.06,0,2.05-.32,2.79-.89.74-.58,1.15-1.34,1.14-2.15l-1.49-143.83c-.06-5.38-5.8-9.75-12.8-9.75h-156.48c-15.47,0-28.05-9.66-28.05-21.53v-48.94c0-1.44,1.52-2.61,3.4-2.61s3.4,1.17,3.4,2.61v48.94c0,8.99,9.53,16.31,21.25,16.31h156.48c10.73,0,19.52,6.7,19.6,14.93l1.49,143.83c.02,2.21-1.08,4.29-3.11,5.86-2.03,1.57-4.73,2.43-7.61,2.43Z"/>
        <path class="cls-14" d="M3055.84,2594.94h-64.6c-1.88,0-3.4-1.17-3.4-2.61s1.52-2.61,3.4-2.61h64.6c1.88,0,3.4,1.17,3.4,2.61s-1.52,2.61-3.4,2.61Z"/>
      </g>
      <g>
        <path class="cls-10" d="M2836.25,2103.55s-120.51,154.29,16.98,311.21l51.69-4.82s-99.5-159.77-55.18-287.13l73.22,5.35,40.49-26.39-127.2,1.78Z"/>
        <path class="cls-9" d="M2902.25,2858.94s97.64,212.8,148.86,300.94c0,0,10.17,55.46,0,72.9l-8.67,3.85,40.47-1.2s3.59-74.6.79-78.77c-2.81-4.17-8.42-3.89-8.42-3.89,0,0-17.35-137.47-67.6-166.81l-48.7-167.74-56.72,40.71Z"/>
        <path class="cls-3" d="M3025.16,3247.09c-.06.98,31.6.53,48.8.22,6.35-.12,11.76-4.58,13.12-10.78l12.99-68.23c1.23-6.48-2.88-12.78-9.32-14.25l-7.25-1.66s-10.34,14.19-7.09,27.54c3.26,13.36,6.15,47.95-2.07,51.99-8.23,4.03-31.89,4.74-31.89,4.74,0,0-16.74,1.66-17.28,10.45Z"/>
        <path class="cls-3" d="M2809.71,3248.32c-3.2,1.82-1.88,6.71,1.8,6.68,28.78-.29,93.27-1.2,99-3.58,7.4-3.08-2.7-29.66-13.32-38.66l-58.66,19.15-28.82,16.42Z"/>
        <path class="cls-8" d="M2791.5,2845.37s63.09,305.23,80.94,364.77l-42.22,26.5s21.16-3.6,36.85-4.74c15.69-1.14,30.12-19.15,30.12-19.15l-5.06-8.07s-15.82-303.57-11.97-338.04l-88.66-21.28Z"/>
        <path class="cls-7" d="M2634.88,2133.42s-8.7,158.78,135.86,239.91l-34.8,79.38s-130.88-79.16-126.04-295.07c.14-6.2-2.1-12.21-6.14-16.91l-27.82-32.27c-10.6-12.29-14.56-28.97-10.62-44.72l3.66-14.64c1.23-4.9,6.81-7.26,11.17-4.72l2.91,1.69c9.26,5.38,16.6,13.53,20.97,23.31l13.66,30.53c5.1,11.4,16.87,18.33,29.31,17.25l8.45-.73-20.56,16.98Z"/>
        <path class="cls-5" d="M2765.7,2361.43c24.18,6.71,106.12,28.26,157.27,27.38l-31.4,177.22,2.5,28.91-102.39-.46s-28.82-66.94-51.57-100.32c-6.57-9.64-1.68-21.14,2.04-32.19l-5.11-3.41c-5.2-3.47-7.46-9.97-5.52-15.92l24.93-76.29c1.3-3.85,5.34-6.01,9.25-4.93Z"/>
        <path class="cls-13" d="M2783.46,2579.35l2.01,17.51s-28.94,86.66,14.47,289.05c0,0,94,26.63,171.26-37.09,0,0-21.79-191.03-27.75-199.93-29.65-44.32-49.4-53.96-49.4-53.96l-.89-19.13s-82.64,14.94-109.71,3.55Z"/>
        <path class="cls-6" d="M2823.55,2375.72c-.36-.47,21.38-65.62,21.38-65.62l31.13,2.82,12.16,73.91s-48.79,9.85-64.67-11.11Z"/>
        <path class="cls-4" d="M2868.6,2207.35c-2.08,1.29-66.53,27.93-52.68,94.84.82,3.95,3.46,7.31,7.14,8.95,9.46,4.22,29.82,11.44,54.18,8.97,33.77-3.43,55.89-62.35,54.95-79.5s-43.01-46.08-63.59-33.26Z"/>
        <path class="cls-13" d="M2888.22,2181.34c-1.69.22-37.25,12.6-19.62,38.37,17.63,25.76,24.24,40.93,15.91,52.24-7.6,10.31-24.43,4.43-22.96,25.88.29,4.29-1.56,8.46-5.13,10.87-15.86,10.74-54.55,43.78-16.22,90.9,3.12,3.83,3.76,9.12,1.35,13.43-11.23,20.14-34.81,79.14,50.57,111.86,84.37,32.34,114.84-22.82,123.35-44.86,1.84-4.77,6.54-7.69,11.64-7.45,9.27.44,22.41-1.1,21.81-13.49-.37-7.53-5.06-14.27-10.61-19.68-5.49-5.35-4.41-14.72,2.26-18.51,5.04-2.86,9.49-7.33,11.37-14.3,5.11-18.95-5.09-75.6-59.4-85.2-4.53-.8-9.27-5.05-9.93-9.6,0-.07-.02-.14-.03-.2-.73-4.4.76-8.9,4.36-11.54,8.67-6.36,19.79-19.17,10.76-39.7-8.01-18.21-23.37-24.36-34.79-26.32-6.7-1.15-11.11-7.49-9.69-14.14,3.85-18.12.49-47.14-65.01-38.55Z"/>
      </g>
      <g>
        <g>
          <path class="cls-13" d="M1596.78,3008.28s-211,232.62-387.22,134.31c-141.63-79.01,59.59-58.37,230.26-95.7,13.39-2.93,9.89-22.95-3.7-21.15-133.54,17.71-337.3,32.18-372.69-37.45-53.43-105.11-1.62-71.02,160.99-55.84,162.61,15.18,193.94-24.97,87.8-49.98-106.14-25.01-274.99,30.3-314.32-21.13-39.33-51.43-60.83-153.53-76.51-197.44-15.68-43.91,202.41-109.79,261.37-52.15,58.96,57.64,106.84,186.3,176.81,209.79,69.97,23.49-5.3-90.32-51.7-149.06-46.41-58.74-64.8-102.4,27.91-88.39,92.71,14.01,141.72,127.17,151.5,211.63,9.77,84.46,42.43,131.71,40.95,89.92s-16.64-169.93-46.28-208.46c-29.63-38.53,181.91,8.49,114.84,331.1Z"/>
          <path class="cls-11" d="M1579.6,3010.5c-.93.35-2.01.2-2.81-.51-181.11-158.44-484.87-273.61-487.91-274.75-1.44-.54-2.16-2.14-1.62-3.57.54-1.43,2.14-2.16,3.57-1.62,3.06,1.14,307.74,116.65,489.62,275.77,1.15,1.01,1.27,2.76.26,3.91-.31.36-.69.61-1.1.77Z"/>
        </g>
        <g>
          <path class="cls-16" d="M1671.52,3156.85s-385.34,12.71-449.21-226.63c-51.33-192.36,102.36,2.67,281.08,121.24,14.03,9.31,28.68-10.89,15.48-21.33-129.69-102.6-316.52-269.88-285.37-360.56,47.02-136.9,61.23-62.1,186.76,94.22,125.53,156.32,187.69,149.64,119.06,34.71-68.63-114.94-261.64-216.54-249.9-295.16,11.74-78.62,83.38-184.79,108.7-236.12,25.31-51.33,269.71,84.65,269.27,185.87-.45,101.22-72.97,253.35-33.9,335.1,39.07,81.75,75.1-81.83,87.24-172.92,12.14-91.09,34.91-144.61,101.77-50.9,66.85,93.71,8.97,233.58-57.15,314.35-66.11,80.77-79.86,149.92-44.29,112.92,35.58-37,135.6-159.85,144.25-218.89,8.65-59.04,147.92,167.62-193.79,384.11Z"/>
          <path class="cls-11" d="M1654.89,3143.61c-1.1-.52-1.89-1.61-1.96-2.91-15.04-295.02-173.01-661.2-174.61-664.86-.75-1.73.04-3.73,1.77-4.48,1.72-.75,3.73.04,4.48,1.77,1.6,3.67,160.06,370.96,175.16,667.24.1,1.87-1.35,3.47-3.23,3.57-.58.03-1.13-.09-1.61-.32Z"/>
        </g>
      </g>
    </g>
  </g>
</svg>