<?xml version="1.0" encoding="UTF-8"?>
<svg id="Capa_1" xmlns="http://www.w3.org/2000/svg" xmlns:xlink="http://www.w3.org/1999/xlink" version="1.1" viewBox="0 0 339 339">
  <!-- Generator: Adobe Illustrator 30.0.0, SVG Export Plug-In . SVG Version: 2.1.1 Build 123)  -->
  <defs>
    <style>
      .st0, .st1, .st2, .st3, .st4, .st5 {
        fill: none;
      }

      .st6, .st7, .st8, .st9 {
        fill: #e31510;
      }

      .st1, .st2, .st3, .st4, .st10, .st5, .st7, .st8, .st11 {
        stroke-linecap: round;
        stroke-linejoin: round;
      }

      .st1, .st2, .st3, .st10, .st7, .st8, .st11 {
        stroke: #2c2e38;
      }

      .st1, .st8 {
        stroke-width: 1.35px;
      }

      .st2, .st4, .st10, .st7, .st11 {
        stroke-width: .68px;
      }

      .st3, .st5 {
        stroke-width: .34px;
      }

      .st12 {
        clip-path: url(#clippath-1);
      }

      .st13 {
        clip-path: url(#clippath-2);
      }

      .st4, .st5 {
        stroke: #fff;
      }

      .st10, .st14 {
        fill: #2c2e38;
      }

      .st15, .st16, .st17, .st11 {
        fill: #fff;
      }

      .st16, .st9 {
        fill-opacity: .5;
      }

      .st17 {
        fill-opacity: .7;
      }

      .st18 {
        clip-path: url(#clippath);
      }
    </style>
    <clipPath id="clippath">
      <path class="st0" d="M190.12,156.04s7.2,15.37,7.2,16.18-6.39,4.29-7.61,5.02c-.94.54-1.92,1.02-2.91,1.45l.73,7.12s11-2.51,15.61-5.02c4.61-2.51,4.45-5.34,3.38-9.55-1.07-4.2-8.17-20.45-8.17-20.45l-8.23,5.25Z"/>
    </clipPath>
    <clipPath id="clippath-1">
      <path class="st0" d="M138.18,152.65s-5.25,19.25-5.41,22.65c-.15,3.4,10.43,10.11,10.82,10.51.39.41-.6-11.69-.6-11.69l3.59-17.58-8.4-3.89Z"/>
    </clipPath>
    <clipPath id="clippath-2">
      <path class="st0" d="M155,120.86s2.1,7.44,6.08,11.81c3.98,4.37,5.41,5.41,7.52,5.09,2.12-.32,4.37-3.07,7.52-8.79s3.38-10.11,3.64-10.51c.26-.4-.68-8.49-5.18-11.97-4.5-3.48-9.55-5.01-13.91-1.21s-7.14,10-5.68,15.58Z"/>
    </clipPath>
  </defs>
  <path class="st6" d="M285.82,150.57c1.04-28-9.02-56.34-31.2-69.83-10.95-6.66-23.74-10.56-36.54-9.98-13.74.61-26.67,6.21-39.62,10.82-12.95,4.61-26.98,8.29-40.33,5.02-9.66-2.37-18.16-8.21-27.72-10.88-37.66-10.49-70.45,32.24-52.03,66.21,4.52,8.33,11.49,15.01,17.35,22.46,5.86,7.46,10.77,16.46,9.98,25.9-.68,7.82-5.11,14.78-6.96,22.41-3.53,14.61,3.48,30.68,15.58,39.58s28.44,10.98,43.04,7.31,27.45-12.63,37.57-23.73c5.41-5.95,10.71-12.9,18.49-14.92,7.47-1.93,15.17,1.22,22.75,2.66,14.16,2.62,28.77-.71,40.41-9.19,18.29-13.53,28.29-38.56,29.22-63.86Z"/>
  <path class="st17" d="M285.82,150.57c1.04-28-9.02-56.34-31.2-69.83-10.95-6.66-23.74-10.56-36.54-9.98-13.74.61-26.67,6.21-39.62,10.82-12.95,4.61-26.98,8.29-40.33,5.02-9.66-2.37-18.16-8.21-27.72-10.88-37.66-10.49-70.45,32.24-52.03,66.21,4.52,8.33,11.49,15.01,17.35,22.46,5.86,7.46,10.77,16.46,9.98,25.9-.68,7.82-5.11,14.78-6.96,22.41-3.53,14.61,3.48,30.68,15.58,39.58s28.44,10.98,43.04,7.31,27.45-12.63,37.57-23.73c5.41-5.95,10.71-12.9,18.49-14.92,7.47-1.93,15.17,1.22,22.75,2.66,14.16,2.62,28.77-.71,40.41-9.19,18.29-13.53,28.29-38.56,29.22-63.86Z"/>
  <path class="st6" d="M256.77,287.38c0,10.09-40.92,18.28-91.4,18.28s-91.4-8.18-91.4-18.28,40.92-18.28,91.4-18.28,91.4,8.18,91.4,18.28Z"/>
  <path class="st16" d="M256.77,287.38c0,10.09-40.92,18.28-91.4,18.28s-91.4-8.18-91.4-18.28,40.92-18.28,91.4-18.28,91.4,8.18,91.4,18.28Z"/>
  <path class="st11" d="M262.41,44.22c2.25,0,4.08,1.83,4.08,4.08v72.65c0,2.25-1.83,4.08-4.08,4.08h-65.9c-2.25,0-4.08-1.83-4.08-4.08V48.29c0-2.25,1.83-4.08,4.08-4.08h65.9Z"/>
  <path class="st10" d="M196.5,44.22h65.9c2.24,0,4.06,1.82,4.06,4.06v4.23h-74.03v-4.21c-.01-2.24,1.8-4.07,4.04-4.08h.04Z"/>
  <path class="st2" d="M196.46,87.36h29.8"/>
  <path class="st2" d="M196.46,91.21h29.8"/>
  <path class="st2" d="M196.46,95.05h29.8"/>
  <path class="st2" d="M196.46,98.9h29.8"/>
  <path class="st2" d="M196.46,102.74h29.8"/>
  <path class="st2" d="M196.46,106.6h29.8"/>
  <path class="st2" d="M196.46,110.44h29.8"/>
  <path class="st2" d="M196.46,114.29h29.8"/>
  <path class="st2" d="M196.46,118.14h29.8"/>
  <path class="st2" d="M231.5,87.36h29.8"/>
  <path class="st2" d="M231.5,91.21h29.8"/>
  <path class="st2" d="M231.5,95.05h29.8"/>
  <path class="st2" d="M231.5,98.9h29.8"/>
  <path class="st2" d="M231.5,102.74h29.8"/>
  <path class="st2" d="M231.5,106.6h29.8"/>
  <path class="st2" d="M231.5,110.44h29.8"/>
  <path class="st2" d="M231.5,114.29h29.8"/>
  <path class="st2" d="M231.5,118.14h29.8"/>
  <path class="st6" d="M216.39,63c.15-.46.22-.93.23-1.41,0-1.75-1.78-1.85-3.52-1.85h-.44v-.41h7.61v.41c-1.98,0-2.7,1.26-3.32,3.14l-4.06,12.11c-.3.9-.56,1.57-1.51,1.57h-.08l-3.57-11.57-3.32,10.03c-.31.9-.57,1.57-1.52,1.57h-.08l-5.19-16.84h-1.83v-.41h6.68v.41h-1.9l3.85,13.26h.15l2.91-8.81-1.35-4.42h-1.82v-.45h6.69v.41h-1.9l3.85,13.26h.15l3.29-10Z"/>
  <path class="st8" d="M230.84,55.49h30.66v27.72h-30.66v-27.72Z"/>
  <path class="st10" d="M261.51,67.08c-1.03.06-2.05.2-3.06.43-4.66,1.01-5.87,7.7-11.14,7.7-4.66,0-5.06-6.28-11.75-7.09-1.63-.26-3.29.04-4.73.84v14.26h30.68v-16.13Z"/>
  <path class="st11" d="M241.03,61.83c0,1.9-1.54,3.45-3.44,3.45-1.9,0-3.45-1.54-3.45-3.44,0-1.9,1.54-3.45,3.44-3.45h.01c1.9,0,3.44,1.54,3.44,3.44Z"/>
  <path class="st11" d="M194.65,46.64h68.26v2.63h-68.26v-2.63Z"/>
  <path class="st10" d="M258.65,141.14h-29.55c-2.42,0-4.38,1.96-4.38,4.38v15.8c0,2.42,1.96,4.38,4.38,4.38h.91c-.92,2.03-2.7,5.14-5.52,6.98,0,0,6-.42,12.24-6.98h21.91c2.42,0,4.38-1.96,4.38-4.38v-15.8c0-2.41-1.95-4.37-4.37-4.38Z"/>
  <path class="st7" d="M238.79,152.86c0-1.25-1-2.26-2.25-2.26-1.25,0-2.26,1-2.27,2.25,0,1.25,1,2.26,2.25,2.27h.01c1.24,0,2.25-1.01,2.25-2.25Z"/>
  <path class="st7" d="M246.45,152.86c0-1.24-1.01-2.25-2.25-2.25s-2.25,1.01-2.25,2.25,1.01,2.25,2.25,2.25c1.24,0,2.25-1.01,2.25-2.25Z"/>
  <path class="st7" d="M254.12,152.86c0-1.25-1-2.26-2.25-2.26-1.25,0-2.26,1-2.27,2.25,0,1.25,1,2.26,2.25,2.27h0c1.24,0,2.25-1.01,2.26-2.25Z"/>
  <path class="st7" d="M96.16,53.8h48.67c2.41,0,4.37,1.96,4.37,4.37v33.74h-57.39v-33.74c0-2.4,1.94-4.36,4.35-4.37Z"/>
  <path class="st10" d="M91.81,86.47h57.36v5.42h-57.36v-5.42Z"/>
  <path class="st11" d="M94.44,88.32h52.11v1.72h-52.11v-1.72Z"/>
  <path class="st10" d="M128.42,71.09c0,4.38-3.55,7.92-7.92,7.92s-7.92-3.55-7.92-7.92,3.55-7.92,7.92-7.92,7.92,3.55,7.92,7.92Z"/>
  <path class="st11" d="M116.92,66.17l8.55,4.93-8.55,4.93v-9.87Z"/>
  <path class="st10" d="M124.36,105.77c1.05,0,1.91.85,1.91,1.91v20.75c0,1.05-.85,1.91-1.91,1.91h-54.44c-1.05,0-1.91-.85-1.91-1.91v-20.75c0-1.05.85-1.91,1.91-1.91h54.44Z"/>
  <path class="st6" d="M74.95,109.11l.28.47c-1.28.72-2.48,1.97-2.48,3.45-.07,1.05.73,1.96,1.78,2.03.01,0,.03,0,.04,0,.19,0,.32-.09.32-.28s-.1-.25-.28-.28c-.53-.14-.87-.65-.82-1.19.02-.85.73-1.53,1.58-1.51.03,0,.05,0,.08,0,.94,0,1.7.77,1.7,1.71,0,.02,0,.03,0,.05-.01,1.17-.98,2.12-2.15,2.1-.03,0-.05,0-.08,0-1.4.09-2.61-.97-2.7-2.37,0-.09,0-.18,0-.27-.02-1.71,1.3-3.09,2.74-3.91ZM80.76,109.11l.28.47c-1.29.72-2.48,1.97-2.48,3.45-.07,1.05.72,1.95,1.77,2.02.02,0,.03,0,.05,0,.19,0,.32-.09.32-.28s-.09-.25-.28-.28c-.53-.14-.87-.65-.82-1.19.02-.85.72-1.53,1.57-1.51.03,0,.06,0,.09,0,.94,0,1.7.77,1.7,1.71,0,.02,0,.03,0,.05-.02,1.18-.99,2.12-2.17,2.1-.02,0-.04,0-.06,0-1.41.09-2.61-.98-2.7-2.39,0-.08,0-.17,0-.25-.03-1.71,1.29-3.09,2.74-3.91Z"/>
  <path class="st4" d="M86.31,114.11h33.15"/>
  <path class="st4" d="M86.31,116.96h33.15"/>
  <path class="st4" d="M86.31,119.81h33.15"/>
  <path class="st4" d="M86.31,122.66h33.15"/>
  <path class="st10" d="M123.97,153.99c1.12,6.84-3.52,13.29-10.37,14.41-6.84,1.12-13.29-3.52-14.41-10.37-1.12-6.84,3.53-13.29,10.37-14.41,6.84-1.12,13.29,3.53,14.41,10.37Z"/>
  <path class="st11" d="M118.57,148.07c4.4,3.86,4.83,10.55.97,14.95-3.86,4.4-10.55,4.83-14.95.97-4.4-3.86-4.83-10.55-.97-14.95,3.86-4.4,10.55-4.83,14.95-.97Z"/>
  <path class="st1" d="M111.58,148.35v7.66h5.18"/>
  <path class="st15" d="M190.12,156.04s7.2,15.37,7.2,16.18-6.39,4.29-7.61,5.02c-.94.54-1.92,1.02-2.91,1.45l.73,7.12s11-2.51,15.61-5.02c4.61-2.51,4.45-5.34,3.38-9.55-1.07-4.2-8.17-20.45-8.17-20.45l-8.23,5.25Z"/>
  <g class="st18">
    <path class="st9" d="M203.12,180.79c4.61-2.51,4.45-5.34,3.38-9.55-1.07-4.2-8.17-20.45-8.17-20.45l-1.15.73-.36.68s6.63,16.28,7.03,21.7c.27,3.64-7.06,8.19-11.91,10.78,3.6-.95,8.49-2.42,11.19-3.89Z"/>
  </g>
  <path class="st2" d="M190.12,156.04s7.2,15.37,7.2,16.18-6.39,4.29-7.61,5.02c-.94.54-1.92,1.02-2.91,1.45l.73,7.12s11-2.51,15.61-5.02c4.61-2.51,4.45-5.34,3.38-9.55-1.07-4.2-8.17-20.45-8.17-20.45l-8.23,5.25Z"/>
  <path class="st15" d="M138.18,152.65s-5.25,19.25-5.41,22.65c-.15,3.4,10.43,10.11,10.82,10.51.39.41-.6-11.69-.6-11.69l3.59-17.58-8.4-3.89Z"/>
  <g class="st12">
    <path class="st9" d="M140.58,154.22l-.11-.52-2.29-1.05s-5.25,19.25-5.41,22.65c-.15,3.4,10.43,10.11,10.82,10.51.16.16.1-1.65-.03-3.89-3.15-2.67-7.67-6.43-8.2-8.01"/>
  </g>
  <path class="st2" d="M138.18,152.65s-5.25,19.25-5.41,22.65c-.15,3.4,10.43,10.11,10.82,10.51.39.41-.6-11.69-.6-11.69l3.59-17.58-8.4-3.89Z"/>
  <path class="st7" d="M162.84,133.31s-2.03,1.46-5.98,1.62c-3.96.16-4.14-2.7-9.06-2.7-5.96,0-13.42,18.84-13.42,18.84,0,0,3.72,3.64,7.36,5.18,2.02.88,4.13,1.51,6.31,1.86l.57,12.38h40.11l.48-12.38,12.54-8.13s-6.15-11-9.14-15.12c-2.99-4.12-8.01-2.59-9.55-1.54-1.53,1.05-6.08,1.3-7.76,1.05-2.19-.48-4.35-1.08-6.48-1.78,0,0-2.58-2.15-5.98.72Z"/>
  <path class="st3" d="M148.45,137.68l-.16,20.54"/>
  <path class="st3" d="M149.91,139.55s.57,10.02,2.7,15.61"/>
  <path class="st3" d="M152.98,155.96c.46,1.36,1.03,2.69,1.7,3.96"/>
  <path class="st3" d="M151.2,138.41c.77,3.65,1.85,7.22,3.24,10.67"/>
  <path class="st3" d="M186.06,140.19s-1.94,7.93-3.64,11.49"/>
  <path class="st3" d="M189.21,158.14l-.08-16.01"/>
  <path class="st3" d="M188.32,142.45s-1.46,10.14-5.02,15.45"/>
  <path class="st3" d="M186.54,155.88s-1.62,3.08-2.75,4.69"/>
  <path class="st3" d="M160.58,134.53s1.13,6.96,2.75,10.51c1.62,3.55,4.45,4.29,6.88,3.24,2.43-1.05,4.21-6.23,4.06-12.84"/>
  <path class="st7" d="M154.84,119.97s-1.54-2.66-2.75-1.29c-1.21,1.37.97,4.53,2.18,5.58,1.21,1.05,2.1.4,2.03-.72-.07-1.13-1.46-3.56-1.46-3.56Z"/>
  <path class="st16" d="M154.84,119.97s-1.54-2.66-2.75-1.29c-1.21,1.37.97,4.53,2.18,5.58,1.21,1.05,2.1.4,2.03-.72-.07-1.13-1.46-3.56-1.46-3.56Z"/>
  <path class="st2" d="M154.84,119.97s-1.54-2.66-2.75-1.29c-1.21,1.37.97,4.53,2.18,5.58,1.21,1.05,2.1.4,2.03-.72-.07-1.13-1.46-3.56-1.46-3.56Z"/>
  <path class="st7" d="M179.3,119.97s1.53-2.66,2.75-1.29c1.22,1.37-.97,4.53-2.18,5.58-1.21,1.05-2.11.4-2.03-.72.08-1.13,1.46-3.56,1.46-3.56Z"/>
  <path class="st16" d="M179.3,119.97s1.53-2.66,2.75-1.29c1.22,1.37-.97,4.53-2.18,5.58-1.21,1.05-2.11.4-2.03-.72.08-1.13,1.46-3.56,1.46-3.56Z"/>
  <path class="st2" d="M179.3,119.97s1.53-2.66,2.75-1.29c1.22,1.37-.97,4.53-2.18,5.58-1.21,1.05-2.11.4-2.03-.72.08-1.13,1.46-3.56,1.46-3.56Z"/>
  <path class="st11" d="M162.11,132.75c.76,3.45,1.74,6.85,2.91,10.19,1.46,3.64,4.2,3.64,5.34,1.29,1.14-2.34,1.86-11.09,1.86-11.09,0,0-7.6,1.06-10.11-.39Z"/>
  <path class="st15" d="M155,120.86s2.1,7.44,6.08,11.81c3.98,4.37,5.41,5.41,7.52,5.09,2.12-.32,4.37-3.07,7.52-8.79s3.38-10.11,3.64-10.51c.26-.4-.68-8.49-5.18-11.97-4.5-3.48-9.55-5.01-13.91-1.21s-7.14,10-5.68,15.58Z"/>
  <g class="st13">
    <path class="st9" d="M174.57,106.46c-4.53-3.47-9.54-5.01-13.91-1.21s-7.12,10.02-5.66,15.61c0,0,.4,1.43,1.19,3.38,0-.25.03-.5.1-.74.97-3.06,3.82-8.99,13.42-6.27,7.62,2.15,6.69,8.86,5.98,12.43l.41-.74c3.16-5.74,3.38-10.11,3.64-10.51.26-.4-.65-8.46-5.18-11.95Z"/>
  </g>
  <path class="st2" d="M155,120.86s2.1,7.44,6.08,11.81c3.98,4.37,5.41,5.41,7.52,5.09,2.12-.32,4.37-3.07,7.52-8.79s3.38-10.11,3.64-10.51c.26-.4-.68-8.49-5.18-11.97-4.5-3.48-9.55-5.01-13.91-1.21s-7.14,10-5.68,15.58Z"/>
  <path class="st2" d="M168.59,124.74c-.25,1.58-.39,3.17-.4,4.77.08,1.62.57,2.1-.16,2.27-.73.16-1.54-.97-1.54-.97"/>
  <path class="st2" d="M160.5,126.04c.96.69,2.25.72,3.24.08"/>
  <path class="st2" d="M170.77,126.04c.96.69,2.24.72,3.23.08"/>
  <path class="st2" d="M165.66,123.32s-1.54-3.81-6.63-2.03"/>
  <path class="st2" d="M169.9,122.85s1.29-3.72,5.9-1.54"/>
  <path class="st2" d="M166.64,126.32c0,2.08-2.39,3.77-5.33,3.77s-5.34-1.68-5.34-3.77,2.23-2.95,5.18-2.95,5.5.87,5.5,2.95Z"/>
  <path class="st2" d="M178.94,126.32c0,2.08-2.39,3.77-5.34,3.77s-5.33-1.68-5.33-3.77,2.22-2.95,5.17-2.95,5.5.87,5.5,2.95Z"/>
  <path class="st11" d="M110.78,191.16l-.33,81.95c0,.54.43.97.97.97s.95-.42.97-.94l2.34-81.87-3.95-.12Z"/>
  <path class="st11" d="M105.26,210.32l-.32,84.72c0,.53.43.97.96.97h.01c.52,0,.95-.41.97-.93l2.33-84.66-3.96-.11Z"/>
  <path class="st11" d="M224.08,191.16l.33,81.95c0,.53-.43.97-.96.97h0c-.52,0-.96-.42-.97-.94l-2.33-81.87,3.94-.12Z"/>
  <path class="st11" d="M229.6,210.32l.33,84.72c0,.53-.43.97-.96.97h-.01c-.52,0-.95-.41-.97-.93l-2.34-84.66,3.95-.11Z"/>
  <path class="st11" d="M143.67,213.84l-.2,75.2c-.04.39.23.74.61.8.38-.05.65-.39.62-.77l1.47-75.14-2.51-.09Z"/>
  <path class="st11" d="M191.27,211.42l.18,65.63c.03.33-.2.63-.53.68-.33-.05-.56-.35-.52-.68l-1.25-65.57,2.12-.05Z"/>
  <path class="st11" d="M142.94,211.42l.18,65.63c.03.33-.2.63-.53.68-.33-.05-.56-.35-.52-.68l-1.25-65.57,2.12-.05Z"/>
  <path class="st11" d="M189.91,213.84l.21,75.2c.04.39-.23.74-.61.8-.38-.06-.65-.39-.62-.77l-1.47-75.14,2.49-.09Z"/>
  <path class="st11" d="M196.54,212.24c0,3.8-13.47,6.88-30.08,6.88s-30.08-3.08-30.08-6.88,13.47-6.88,30.08-6.88,30.08,3.08,30.08,6.88Z"/>
  <path class="st11" d="M151.81,270.59s-1.58,2.26-.45,3.38c1.13,1.12,2.25.68,2.14,1.81-.12,1.13-1.91,4.95-3.49,9.01-1.58,4.06,1.69,8.11,4.73,6.99s2.7-12.4,3.15-14.43c.45-2.03.79-2.37.68-4.28-.11-1.91-.22-3.94-1.69-4.17-1.47-.23-4.39.91-5.07,1.69Z"/>
  <path class="st7" d="M156.64,288.67c-2.03-.77-5.14-.61-6.89-.44.59,2.55,2.84,4.34,4.99,3.55.9-.33,1.49-1.54,1.9-3.11Z"/>
  <path class="st11" d="M148.32,265.64s3.27,5.52,4.16,6.98c.9,1.46,3.95,1.01,4.29-1.01s-1.24-7.66-1.24-7.66l-6.76,1.69h-.45Z"/>
  <path class="st7" d="M140.55,256.85s-.91,1.47-.45,2.48c.45,1.01,1.69,3.94,2.48,5.41.79,1.47,4.39,2.37,8.56,1.69,4.16-.68,6.54-2.6,6.65-4.29.12-1.69-.68-3.94-1.24-6.65s-2.03-2.59-4.06-2.59-10.25,2.37-11.94,3.94Z"/>
  <path class="st10" d="M152.72,223.73c.06-2.77,1.66-4.14,1.78-6.04.19-2.51-.02-5.04-.62-7.48l-3.08-4.21c-8.87.11-15.22.26-15.33.3-.34.11-.57,2.03-.79,3.6,0,0-3.76.48-3.09,10.96.09,1.46,3.89,18.35,4.17,20.28,1.69,11.77,5.46,17.66,5.46,17.66,0,0,.34,1.47,4.73,1.13,4.39-.34,8.79-3.26,8.79-3.26,0,0-2.26-22.91-2.03-32.93Z"/>
  <path class="st11" d="M134.08,208.18s-4.66.68-7.51,3.93c-2.85,3.26-.43,5.41,5.11,4.83,5.54-.58,11.94-6.25,12.21-6.56.27-.3-5.78-4.16-9.81-2.2Z"/>
  <path class="st11" d="M142.35,210.21c2.97.15,5.91.61,8.79,1.35,3.83,1.13,10.59,3.38,12.17,3.38s1.13-5.86,1.13-6.98-20.28-1.8-22.76-1.8.68,4.06.68,4.06Z"/>
  <path class="st7" d="M164.43,207.96s-1.8.9-2.48,4.28c-.68,3.38-1.57,5.18-.22,6.08s7.21,1.58,8.11.68c.9-.9,3.38-5.41,3.83-8.33s-9.24-2.7-9.24-2.7Z"/>
  <path class="st10" d="M172.09,209.08c-1.05,1.2-1.88,2.57-2.47,4.06-.48,1.55-.85,3.13-1.13,4.73,2.16.59,4.26,1.35,6.31,2.26,3.61,1.58,9.69,2.7,15.55,4.06,5.85,1.35,7.44,2.7,9.46,2.7s4.51-1.58,7.67-5.41.45-11.95-2.7-14.43c-3.15-2.48-20.06-4.5-22.31-3.83-2.25.68-10.37,5.85-10.37,5.85Z"/>
  <path class="st7" d="M129.81,217c-.45-2.02-1.35-3.92-2.64-5.54-.21.2-.41.4-.61.62-2.51,2.85-.94,4.88,3.24,4.92Z"/>
  <path class="st5" d="M152.37,218.79s-2.33,24.88-7.07,28.76"/>
  <path class="st5" d="M150.73,242.41s-1.84,8.11-6.68,11.34"/>
  <path class="st5" d="M180.66,214.26s-7.21.45-2.48,3.6,13.3,5.18,13.3,5.18"/>
  <path class="st10" d="M233.02,205.74l-2.43-2.19-5.62-12.17c-.54-1.13-1.69-1.84-2.95-1.83h-109.24c-1.26-.01-2.41.7-2.95,1.83l-7.01,15.16-1.16-.43v3.47l.05-.04c.14.96.97,1.66,1.94,1.64h127.49c1.02.02,1.88-.77,1.94-1.79l-.05-3.65Z"/>
  <path class="st11" d="M231.13,208.01h-127.49c-1.03.04-1.9-.76-1.94-1.79-.01-.28.04-.56.15-.82l7.96-17.19c.54-1.14,1.7-1.85,2.95-1.83h109.24c1.25-.02,2.4.7,2.95,1.83l7.96,17.19c.41.94-.02,2.04-.97,2.46-.26.11-.54.16-.82.15Z"/>
  <path class="st9" d="M110.1,196.47s-2.89,1.98-1.08,2.7,22.55.18,25.08-.54c2.53-.72,5.41-7.4,5.41-8.48s-3.64-1.86-4.97-1.92c-1.34-.06-19.02,1.01-19.02,1.01l-5.41,7.22Z"/>
  <path class="st9" d="M220.7,196.82c0,1.7-3.31,3.07-7.4,3.07s-7.39-1.37-7.39-3.07,3.31-3.07,7.39-3.07,7.4,1.37,7.4,3.07Z"/>
  <path class="st9" d="M192.74,198.72c0,2.74-11.87,4.96-26.52,4.96s-26.52-2.22-26.52-4.96,11.87-4.96,26.52-4.96,26.52,2.22,26.52,4.96Z"/>
  <path class="st7" d="M207.89,184.75s-.49-1.94-2.1-1.29c-1.62.65-1.45,4.93-1.14,7.36s2.51,1.29,2.51,1.29v-1.45s-.8.64-1.21-.24c-.41-.89-.33-5.34.08-5.26.41.08,1.21,1.45,1.21,1.45,0,0,.24-.16.65-1.86Z"/>
  <path class="st7" d="M206.73,185.07v10.63c0,1.25,2.87,2.27,6.42,2.27s6.42-1.01,6.42-2.27v-10.63h-12.84Z"/>
  <path class="st11" d="M219.57,185.07c0,1.08-2.87,1.95-6.42,1.95s-6.42-.87-6.42-1.95,2.87-1.95,6.42-1.95,6.42.88,6.42,1.95Z"/>
  <path class="st11" d="M218.73,185.07c0,.94-2.5,1.7-5.58,1.7s-5.58-.76-5.58-1.7,2.5-1.7,5.58-1.7,5.58.76,5.58,1.7Z"/>
  <path class="st10" d="M208.85,186.16c2.81.82,5.8.82,8.61,0-2.81-.82-5.8-.82-8.61,0Z"/>
  <path class="st11" d="M109.3,189.93l.08,3.64,24.51.24v-4.2l-24.59.32Z"/>
  <path class="st11" d="M133.89,193.81l3.56-7.68v-2.27l-3.72,6.47.16,3.47Z"/>
  <path class="st11" d="M109.3,193.24l.08,3.64,24.51.24v-4.2l-24.59.32Z"/>
  <path class="st11" d="M133.89,197.13l3.56-7.69v-2.26l-3.72,6.47.16,3.48Z"/>
  <path class="st11" d="M118.77,180.71s.57-1.13-.24-1.61c-.81-.49-1.7.68-2.18,1.05-.49.37-10.67,7.12-11,8.17-.33,1.05,0,3.38,2.18,3.64,2.18.26,4.12-1.21,5.1-1.45.97-.24,1.35-.32,1.35-.32l6.71-9.06-1.92-.41Z"/>
  <path class="st11" d="M107.53,191.96c2.18.24,4.12-1.21,5.1-1.45.97-.24,1.35-.33,1.35-.33l.24-.33-6.31-1.28c-.71-.66-1.77-.76-2.59-.24-.3,1.04.02,3.39,2.2,3.64Z"/>
  <path class="st11" d="M107.93,188.58h18.93c5.91,0,7.69-.32,7.69-.32l3.64-7.52s-11.49.73-15.04.49c-1.47-.04-2.93-.21-4.37-.49l-10.84,7.85Z"/>
  <path class="st11" d="M107.93,188.58l.32,1.45s15.37.08,19.41.08,7.12.16,7.12.16l-.24-2.03-26.61.33Z"/>
  <path class="st11" d="M134.78,190.25l3.39-7.77v-1.78l-3.64,7.52.24,2.02Z"/>
  <path class="st11" d="M189.38,199.34h-46.34c-.43,0-.78-.34-.78-.77h0c0-.44.35-.78.78-.78h46.35c.43,0,.77.34.78.76h0c0,.44-.34.79-.76.79h-.01Z"/>
  <path class="st11" d="M189.77,197.77h-47.13c-.36,0-.65-.28-.68-.64l-2.56-30.79c-.04-.37.22-.71.59-.75.03,0,.06,0,.09,0h52.26c.37,0,.68.3.68.67,0,.03,0,.06,0,.09l-2.56,30.79c-.02.36-.32.64-.68.64Z"/>
  <path class="st11" d="M170.65,182.21c0,1.84-1.99,3.33-4.45,3.33s-4.46-1.49-4.46-3.33,1.99-3.32,4.46-3.32,4.45,1.49,4.45,3.32Z"/>
  <path class="st2" d="M216.71,158.16c.72-.56,1.23-1.36,1.44-2.25.15-.67.14-1.37-.05-2.03"/>
  <path class="st2" d="M211.31,182.26s4.49-2.7,3.03-5.79-6.43-5.14-6.43-9.95c0-4.15,4.42-5.68,7.29-7.35"/>
  <path class="st2" d="M215.46,182.17s2.51-1.67,2.51-4.32c0-1.78-1.9-2.94-4.41-5.8"/>
  <path class="st2" d="M212.18,170.32s-1.64-1.29-.43-3.72"/>
  <path class="st14" d="M174.12,99.51c.8-.17,2.53-.83,3.69-3.53.08-.17,0-.37-.17-.45,0,0,0,0,0,0-.17-.07-.37,0-.45.18-1.07,2.47-2.6,3.02-3.23,3.14,1.14-1.38,1.76-3.1,1.78-4.89,0-4.69-4.35-8.49-9.71-8.49s-9.71,3.8-9.71,8.49c0,1.71.57,3.38,1.62,4.73-1.02-.05-2.74.38-4.93,2.93-.13.13-.13.35,0,.48.06.05.14.08.22.08.1,0,.19-.04.26-.12,2.79-3.25,4.64-2.7,5.01-2.55-.63.35-1.22.76-1.76,1.24-3.12,2.8-5.02,8.11-4.77,12.53.27,2.93,1.34,5.74,3.07,8.11,2.26-1.62,4.14-3.72,5.5-6.15,1.01-1.79,1.91-3.63,2.7-5.52,0,1.98.26,4.37,1.3,6.08,1.53,2.75,4.44,4.45,7.58,4.43.53,0,1.07-.04,1.59-.16.09-.02.17-.08.22-.17,2.61.55,5.21.51,5.6-.05.64-.89,1.55-3.65,1.86-7.03.55-5.73-3.06-10.71-7.27-13.32ZM165.17,115.39c-1.31-2.14-1.27-5.64-1.12-7.65l.09-.23c.13,4.18,2.15,8.08,5.5,10.59.91.63,1.92,1.1,2.99,1.4-1.66.12-5.06-.2-7.46-4.12Z"/>
  <path class="st5" d="M165.28,104.75s-.55,4.1,4.65,8.11c5.21,4.02,10.14,2.43,10.14,2.43"/>
  <path class="st5" d="M166.05,103.4s5.48,7.98,13.05,5.9"/>
  <path class="st5" d="M163.34,100.74c-1.76-.89-3.88-.73-5.48.42-2.91,1.94-4.37,6.52-4.37,6.52"/>
  <path class="st5" d="M163.48,102.97s-2.36-.63-3.82.83c-.71.64-1.32,1.39-1.8,2.22"/>
</svg>